# Simple closed kitchen-tong mesh; GSO does not contain a catalogued tong scan.
o tongs
v -0.010 -0.009 -0.003
v  0.150 -0.018 -0.003
v  0.175 -0.014 -0.003
v  0.180 -0.008 -0.003
v -0.010 -0.003 -0.003
v -0.018 -0.006 -0.003
v -0.010 -0.009  0.003
v  0.150 -0.018  0.003
v  0.175 -0.014  0.003
v  0.180 -0.008  0.003
v -0.010 -0.003  0.003
v -0.018 -0.006  0.003
v -0.010  0.003 -0.003
v  0.150  0.018 -0.003
v  0.175  0.014 -0.003
v  0.180  0.008 -0.003
v -0.010  0.009 -0.003
v -0.018  0.006 -0.003
v -0.010  0.003  0.003
v  0.150  0.018  0.003
v  0.175  0.014  0.003
v  0.180  0.008  0.003
v -0.010  0.009  0.003
v -0.018  0.006  0.003
f 1 2 3 4 5 6
f 12 11 10 9 8 7
f 1 7 8 2
f 2 8 9 3
f 3 9 10 4
f 4 10 11 5
f 5 11 12 6
f 6 12 7 1
f 13 18 17 16 15 14
f 19 20 21 22 23 24
f 13 14 20 19
f 14 15 21 20
f 15 16 22 21
f 16 17 23 22
f 17 18 24 23
f 18 13 19 24
